<svg width="15" height="10" viewBox="0 0 15 10" fill="none" xmlns="http://www.w3.org/2000/svg">
    <path d="M7.47055 9.00614C7.27408 9.00728 7.07931 8.96944 6.89742 8.89479C6.71553 8.82015 6.5501 8.71016 6.4106 8.57114L0.439046 2.57114C0.299851 2.43128 0.189436 2.26524 0.114105 2.08251C0.0387731 1.89978 2.93331e-09 1.70393 0 1.50614C-2.93331e-09 1.30835 0.0387731 1.1125 0.114105 0.929762C0.189436 0.747029 0.299851 0.580995 0.439046 0.441137C0.578241 0.301279 0.743489 0.190337 0.925356 0.114647C1.10722 0.0389564 1.30215 -2.94728e-09 1.499 0C1.69585 2.94729e-09 1.89077 0.0389564 2.07264 0.114647C2.25451 0.190337 2.41975 0.301279 2.55895 0.441137L7.47055 5.40614L12.3971 0.636137C12.5344 0.482702 12.7018 0.359389 12.8887 0.27391C13.0756 0.188431 13.2781 0.142625 13.4835 0.139356C13.6888 0.136087 13.8926 0.175425 14.0822 0.254911C14.2717 0.334398 14.4429 0.452323 14.585 0.60131C14.7271 0.750296 14.837 0.92714 14.908 1.12078C14.979 1.31442 15.0094 1.5207 14.9975 1.7267C14.9855 1.9327 14.9313 2.13401 14.8384 2.31802C14.7454 2.50204 14.6157 2.6648 14.4573 2.79614L8.48571 8.58614C8.2127 8.85061 7.84975 9.00077 7.47055 9.00614Z" fill="#111111" fill-opacity="0.48"/>
</svg>
