<svg width="24" height="25" viewBox="0 0 24 25" fill="none" xmlns="http://www.w3.org/2000/svg">
    <path d="M17.8925 5.44834C17.5025 5.05834 16.8725 5.05834 16.4825 5.44834L11.5925 10.3283L6.7025 5.43834C6.3125 5.04834 5.6825 5.04834 5.2925 5.43834C4.9025 5.82834 4.9025 6.45834 5.2925 6.84834L10.1825 11.7383L5.2925 16.6283C4.9025 17.0183 4.9025 17.6483 5.2925 18.0383C5.6825 18.4283 6.3125 18.4283 6.7025 18.0383L11.5925 13.1483L16.4825 18.0383C16.8725 18.4283 17.5025 18.4283 17.8925 18.0383C18.2825 17.6483 18.2825 17.0183 17.8925 16.6283L13.0025 11.7383L17.8925 6.84834C18.2725 6.46834 18.2725 5.82834 17.8925 5.44834Z" fill="black" fill-opacity="0.54"/>
</svg>
