<svg width="24" height="25" viewBox="0 0 24 25" fill="none" xmlns="http://www.w3.org/2000/svg">
    <path d="M15.5006 14.1465H14.7106L14.4306 13.8765C15.6306 12.4765 16.2506 10.5665 15.9106 8.53647C15.4406 5.75647 13.1206 3.53647 10.3206 3.19647C6.09063 2.67647 2.53063 6.23647 3.05063 10.4665C3.39063 13.2665 5.61063 15.5865 8.39063 16.0565C10.4206 16.3965 12.3306 15.7765 13.7306 14.5765L14.0006 14.8565V15.6465L18.2506 19.8965C18.6606 20.3065 19.3306 20.3065 19.7406 19.8965C20.1506 19.4865 20.1506 18.8165 19.7406 18.4065L15.5006 14.1465ZM9.50063 14.1465C7.01063 14.1465 5.00063 12.1365 5.00063 9.64647C5.00063 7.15647 7.01063 5.14647 9.50063 5.14647C11.9906 5.14647 14.0006 7.15647 14.0006 9.64647C14.0006 12.1365 11.9906 14.1465 9.50063 14.1465Z" fill="black" fill-opacity="0.54"/>
</svg>
